<svg width="24" height="24" viewBox="0 0 24 24" fill="none" xmlns="http://www.w3.org/2000/svg">
<g clip-path="url(#clip0_847_71425)">
<path d="M7.41892 17.1418C6.72848 16.4172 6.3462 15.4529 6.35262 14.4521C6.35904 13.4512 6.75364 12.4919 7.45332 11.7762L12.6253 6.48582C12.8825 6.22058 13.1904 6.00969 13.5307 5.86568C13.8709 5.72167 14.2366 5.64746 14.6061 5.64746C14.9756 5.64746 15.3413 5.72167 15.6816 5.86568C16.0218 6.00969 16.3297 6.22058 16.5869 6.48582C17.1073 7.02154 17.3984 7.73898 17.3984 8.48582C17.3984 9.23267 17.1073 9.95011 16.5869 10.4858L12.0781 15.0946C11.9046 15.2731 11.6967 15.4145 11.467 15.5103C11.2373 15.6061 10.9905 15.6543 10.7416 15.652C10.4927 15.6497 10.2469 15.5969 10.019 15.4968C9.79108 15.3968 9.58586 15.2515 9.41572 15.0698C9.08095 14.7096 8.89788 14.2343 8.90458 13.7426C8.91129 13.2509 9.10725 12.7807 9.45172 12.4298L12.9925 8.81222C13.0288 8.77484 13.072 8.74501 13.1199 8.72444C13.1677 8.70387 13.2191 8.69297 13.2712 8.69237C13.3232 8.69178 13.3749 8.7015 13.4232 8.72097C13.4715 8.74044 13.5154 8.76928 13.5525 8.80582L14.1125 9.35782C14.1498 9.39412 14.1796 9.43744 14.2001 9.4853C14.2206 9.53315 14.2314 9.5846 14.232 9.63666C14.2325 9.68872 14.2227 9.74037 14.2032 9.78862C14.1836 9.83688 14.1547 9.88079 14.1181 9.91782L10.5797 13.5362C10.521 13.5957 10.4868 13.6751 10.4838 13.7587C10.4808 13.8423 10.5094 13.9239 10.5637 13.9874C10.5881 14.0144 10.6178 14.0361 10.651 14.0511C10.6841 14.066 10.7201 14.0739 10.7564 14.0743C10.7928 14.0747 10.8289 14.0675 10.8624 14.0533C10.8958 14.039 10.926 14.0179 10.9509 13.9914L15.4597 9.38422C15.6924 9.14334 15.8224 8.82152 15.8224 8.48662C15.8224 8.15172 15.6924 7.82991 15.4597 7.58902C15.3494 7.47426 15.217 7.38295 15.0705 7.32058C14.9241 7.25821 14.7665 7.22606 14.6073 7.22606C14.4481 7.22606 14.2906 7.25821 14.1441 7.32058C13.9976 7.38295 13.8652 7.47426 13.7549 7.58902L8.58132 12.8794C8.16766 13.3011 7.93348 13.8667 7.92796 14.4575C7.92244 15.0482 8.14601 15.618 8.55172 16.0474C8.748 16.2519 8.98357 16.4145 9.24429 16.5257C9.50501 16.6368 9.78551 16.6941 10.0689 16.6941C10.3523 16.6941 10.6328 16.6368 10.8935 16.5257C11.1543 16.4145 11.3898 16.2519 11.5861 16.0474L15.8261 11.7074C15.8624 11.67 15.9056 11.6402 15.9535 11.6196C16.0013 11.5991 16.0527 11.5882 16.1048 11.5876C16.1568 11.587 16.2085 11.5967 16.2568 11.6162C16.3051 11.6356 16.349 11.6645 16.3861 11.701L16.9501 12.2522C16.9875 12.2885 17.0173 12.3317 17.0379 12.3796C17.0585 12.4274 17.0694 12.4788 17.07 12.5309C17.0706 12.583 17.0608 12.6346 17.0414 12.6829C17.0219 12.7312 16.9931 12.7751 16.9565 12.8122L12.7165 17.1522C12.3725 17.5071 11.9605 17.7891 11.5051 17.9812C11.0497 18.1734 10.5602 18.2719 10.066 18.2707C9.5717 18.2696 9.08271 18.1689 8.62819 17.9747C8.17368 17.7805 7.76295 17.4967 7.42052 17.1402L7.41892 17.1418Z" fill="#101010"/>
</g>
<defs>
<clipPath id="clip0_847_71425">
<rect width="24" height="24" fill="white"/>
</clipPath>
</defs>
</svg>
