<svg width="14" height="14" viewBox="0 0 14 14" fill="none" xmlns="http://www.w3.org/2000/svg">
<g clip-path="url(#clip0_295_5274)">
<path d="M13.9993 6.99963C13.9993 8.38402 13.5887 9.73733 12.8196 10.8884C12.0505 12.0395 10.9573 12.9367 9.67827 13.4664C8.39925 13.9962 6.99186 14.1348 5.63407 13.8648C4.27627 13.5947 3.02906 12.928 2.05015 11.9491C1.07123 10.9702 0.404581 9.72298 0.134499 8.36519C-0.135583 7.00739 0.00303277 5.6 0.532818 4.32098C1.0626 3.04197 1.95976 1.94878 3.11085 1.17965C4.26193 0.410521 5.61523 0 6.99963 0C8.85604 0 10.6364 0.737459 11.9491 2.05014C13.2618 3.36283 13.9993 5.14321 13.9993 6.99963ZM6.18991 10.7058L11.3832 5.51252C11.4255 5.47079 11.459 5.42109 11.4819 5.36628C11.5048 5.31148 11.5166 5.25267 11.5166 5.19327C11.5166 5.13387 11.5048 5.07506 11.4819 5.02026C11.459 4.96546 11.4255 4.91575 11.3832 4.87402L10.7447 4.23551C10.7029 4.19324 10.6532 4.15968 10.5984 4.13677C10.5436 4.11386 10.4848 4.10206 10.4254 4.10206C10.366 4.10206 10.3072 4.11386 10.2524 4.13677C10.1976 4.15968 10.1479 4.19324 10.1062 4.23551L5.87066 8.47028L3.89309 6.49346C3.85136 6.45119 3.80165 6.41762 3.74685 6.39471C3.69204 6.3718 3.63323 6.36001 3.57383 6.36001C3.51444 6.36001 3.45563 6.3718 3.40082 6.39471C3.34602 6.41762 3.29631 6.45119 3.25458 6.49346L2.61608 7.13196C2.57381 7.17369 2.54024 7.2234 2.51733 7.2782C2.49442 7.33301 2.48263 7.39182 2.48263 7.45122C2.48263 7.51061 2.49442 7.56942 2.51733 7.62423C2.54024 7.67903 2.57381 7.72874 2.61608 7.77047L5.5514 10.7058C5.59313 10.7481 5.64284 10.7816 5.69765 10.8045C5.75245 10.8274 5.81126 10.8392 5.87066 10.8392C5.93006 10.8392 5.98886 10.8274 6.04367 10.8045C6.09847 10.7816 6.14818 10.7481 6.18991 10.7058Z" fill="#101010"/>
</g>
<defs>
<clipPath id="clip0_295_5274">
<rect width="14" height="14" fill="white"/>
</clipPath>
</defs>
</svg>
