<svg width="10" height="10" viewBox="0 0 10 10" fill="none" xmlns="http://www.w3.org/2000/svg">
<path d="M6.29855 5.16964L9.68015 1.78724C9.82891 1.63739 9.91239 1.43479 9.91239 1.22364C9.91239 1.01249 9.82891 0.809897 9.68015 0.66004C9.53029 0.511283 9.3277 0.427808 9.11655 0.427808C8.9054 0.427808 8.7028 0.511283 8.55295 0.66004L5.17135 4.04244L1.78815 0.659241C1.63829 0.510483 1.4357 0.427002 1.22455 0.427002C1.0134 0.427002 0.810806 0.510483 0.66095 0.659241C0.512192 0.809097 0.428711 1.01169 0.428711 1.22284C0.428711 1.43399 0.512192 1.63659 0.66095 1.78644L4.04415 5.16964L0.66095 8.55205C0.512192 8.7019 0.428711 8.90448 0.428711 9.11564C0.428711 9.32679 0.512192 9.52938 0.66095 9.67924C0.810806 9.82799 1.0134 9.91148 1.22455 9.91148C1.4357 9.91148 1.63829 9.82799 1.78815 9.67924L5.17135 6.29684L8.55295 9.67924C8.7028 9.82799 8.9054 9.91148 9.11655 9.91148C9.3277 9.91148 9.53029 9.82799 9.68015 9.67924C9.82891 9.52938 9.91239 9.32679 9.91239 9.11564C9.91239 8.90448 9.82891 8.7019 9.68015 8.55205L6.29855 5.16964Z" fill="#2C3E50"/>
</svg>
