<svg width="11" height="10" viewBox="0 0 11 10" fill="none" xmlns="http://www.w3.org/2000/svg">
<path d="M4.90061 0.0832759H6.42195C6.48185 0.0831881 6.54119 0.094923 6.59655 0.117808C6.65192 0.140693 6.70222 0.174278 6.74458 0.216639C6.78694 0.259 6.82053 0.309304 6.84341 0.364668C6.8663 0.420033 6.87803 0.479368 6.87795 0.539276V3.73394H8.54461C8.61973 3.73403 8.69313 3.75642 8.75551 3.79828C8.81789 3.84013 8.86644 3.89957 8.895 3.96904C8.92356 4.03852 8.93085 4.11492 8.91595 4.18854C8.90104 4.26217 8.86462 4.32971 8.81128 4.38261L5.92195 7.27594C5.85289 7.34446 5.75956 7.38291 5.66228 7.38291C5.565 7.38291 5.47167 7.34446 5.40261 7.27594L2.50728 4.38194C2.45394 4.32904 2.41751 4.2615 2.40261 4.18788C2.3877 4.11425 2.39499 4.03786 2.42356 3.96838C2.45212 3.8989 2.50067 3.83947 2.56305 3.79761C2.62542 3.75576 2.69883 3.73337 2.77395 3.73328H4.44061V0.539276C4.44052 0.47903 4.45239 0.419365 4.47552 0.363737C4.49866 0.30811 4.5326 0.257627 4.57538 0.215213C4.61817 0.172799 4.66895 0.139298 4.72478 0.11665C4.7806 0.0940021 4.84037 0.0826583 4.90061 0.0832759ZM10.5273 7.23261V9.36194C10.5274 9.42185 10.5156 9.48119 10.4927 9.53655C10.4699 9.59192 10.4363 9.64222 10.3939 9.68458C10.3516 9.72694 10.3013 9.76053 10.2459 9.78341C10.1905 9.8063 10.1312 9.81803 10.0713 9.81794H1.24995C1.19004 9.81803 1.1307 9.8063 1.07534 9.78341C1.01997 9.76053 0.96967 9.72694 0.927309 9.68458C0.884948 9.64222 0.851363 9.59192 0.828478 9.53655C0.805593 9.48119 0.793858 9.42185 0.793946 9.36194V7.23261C0.793858 7.1727 0.805593 7.11337 0.828478 7.058C0.851363 7.00264 0.884948 6.95233 0.927309 6.90997C0.96967 6.86761 1.01997 6.83403 1.07534 6.81114C1.1307 6.78826 1.19004 6.77652 1.24995 6.77661H4.03928L4.97261 7.70994C5.06312 7.80087 5.17069 7.87302 5.28916 7.92226C5.40763 7.97149 5.53465 7.99684 5.66295 7.99684C5.79124 7.99684 5.91826 7.97149 6.03673 7.92226C6.1552 7.87302 6.26278 7.80087 6.35328 7.70994L7.28661 6.77661H10.0759C10.1961 6.77767 10.311 6.82619 10.3956 6.91162C10.4801 6.99704 10.5275 7.11242 10.5273 7.23261ZM8.16995 8.90594C8.16995 8.83079 8.14766 8.75732 8.1059 8.69483C8.06415 8.63234 8.0048 8.58363 7.93537 8.55487C7.86593 8.52611 7.78952 8.51858 7.71581 8.53325C7.6421 8.54791 7.57439 8.5841 7.52125 8.63724C7.4681 8.69039 7.43191 8.7581 7.41725 8.83181C7.40259 8.90552 7.41011 8.98193 7.43887 9.05136C7.46763 9.1208 7.51634 9.18015 7.57883 9.2219C7.64132 9.26366 7.71479 9.28594 7.78995 9.28594C7.89097 9.28594 7.98786 9.24586 8.05935 9.17449C8.13085 9.10312 8.1711 9.0063 8.17128 8.90528L8.16995 8.90594ZM9.38661 8.90594C9.38661 8.83079 9.36433 8.75732 9.32257 8.69483C9.28082 8.63234 9.22147 8.58363 9.15203 8.55487C9.0826 8.52611 9.00619 8.51858 8.93248 8.53325C8.85877 8.54791 8.79106 8.5841 8.73791 8.63724C8.68477 8.69039 8.64858 8.7581 8.63391 8.83181C8.61925 8.90552 8.62678 8.98193 8.65554 9.05136C8.6843 9.1208 8.73301 9.18015 8.7955 9.2219C8.85799 9.26366 8.93146 9.28594 9.00661 9.28594C9.10763 9.28594 9.20452 9.24586 9.27602 9.17449C9.34752 9.10312 9.38777 9.0063 9.38795 8.90528L9.38661 8.90594Z" fill="white"/>
</svg>
