<svg width="25" height="22" viewBox="0 0 25 22" fill="none" xmlns="http://www.w3.org/2000/svg">
    <path d="M14.7429 13.4798C13.371 13.4798 12.1981 12.6223 11.7107 11.4126H5.21979L6.30093 8.84852C6.47867 8.42848 6.84151 8.12502 7.27232 8.0382C8.05533 7.88027 9.41823 7.69174 11.4658 7.69174V6.03802C9.3871 6.03802 7.92429 6.21993 6.95126 6.41673C5.98314 6.61187 5.18048 7.2841 4.79389 8.20109L3.43918 11.4134H2.86585V10.8876C2.86585 10.4931 2.54888 10.1731 2.15819 10.1731H0.707657C0.316971 10.1731 0 10.4931 0 10.8876V11.9401C0 12.3346 0.316971 12.6546 0.707657 12.6546H2.86912C2.48909 13.0729 1.63891 14.2223 1.63891 16.1687C1.63891 17.0956 1.73638 17.8753 1.85842 18.4897C1.978 19.09 2.3605 19.5754 2.86749 19.8507V21.0356C2.86749 21.43 3.18446 21.75 3.57514 21.75H5.84636C6.23705 21.75 6.55402 21.43 6.55402 21.0356V20.0963H16.3826V21.0356C16.3826 21.43 16.6996 21.75 17.0902 21.75H19.3615C19.7522 21.75 20.0691 21.43 20.0691 21.0356V19.8507C20.5761 19.5754 20.9586 19.09 21.0782 18.4897C21.2002 17.8753 21.2977 17.0956 21.2977 16.1687C21.2977 14.9789 20.9799 14.0908 20.6457 13.4814H14.7453L14.7429 13.4798ZM5.52857 17.6141C4.73737 17.6141 4.09524 16.9666 4.09524 16.1671C4.09524 15.3675 4.73737 14.72 5.52857 14.72C6.31977 14.72 6.9619 15.3675 6.9619 16.1671C6.9619 16.9666 6.31977 17.6141 5.52857 17.6141ZM14.3939 15.6966L13.8476 17.3503C13.7919 17.519 13.6355 17.6331 13.4594 17.6331H9.47392C9.29783 17.6331 9.14139 17.519 9.0857 17.3503L8.53939 15.6966C8.45093 15.4287 8.64832 15.1525 8.92762 15.1525H14.0049C14.2842 15.1525 14.4824 15.4287 14.3939 15.6966ZM17.4048 17.6141C16.6136 17.6141 15.9714 16.9666 15.9714 16.1671C15.9714 15.3675 16.6136 14.72 17.4048 14.72C18.196 14.72 18.8381 15.3675 18.8381 16.1671C18.8381 16.9666 18.196 17.6141 17.4048 17.6141Z" fill="#fff" />
    <path d="M21.5182 0.25H16.4877C14.3026 0.25 13 1.552 13 3.736V8.758C13 10.948 14.3026 12.25 16.4877 12.25H21.5122C23.6973 12.25 25 10.948 25 8.764V3.736C25.006 1.552 23.7033 0.25 21.5182 0.25ZM22.9229 6.568L20.3477 9.142C20.2576 9.232 20.1436 9.274 20.0295 9.274C19.9154 9.274 19.8014 9.232 19.7113 9.142C19.5373 8.968 19.5373 8.68 19.7113 8.506L21.5182 6.7H15.4012C15.1551 6.7 14.951 6.496 14.951 6.25C14.951 6.004 15.1551 5.8 15.4012 5.8H21.5182L19.7113 3.994C19.5373 3.82 19.5373 3.532 19.7113 3.358C19.8854 3.184 20.1736 3.184 20.3477 3.358L22.9229 5.932C23.007 6.016 23.055 6.13 23.055 6.25C23.055 6.37 23.007 6.484 22.9229 6.568Z" fill="#fff" />
</svg>