<svg width="18" height="16" viewBox="0 0 18 16" fill="none" xmlns="http://www.w3.org/2000/svg">
<path d="M11.9967 3.80979C11.9974 3.61197 11.9197 3.42194 11.7806 3.28129L8.72196 0.216177C8.65189 0.146953 8.56886 0.0922283 8.47761 0.055137C8.38637 0.0180456 8.2887 -0.000684468 8.19021 1.91107e-05H7.99783V3.99893H11.9967V3.80979ZM17.8438 9.62551L14.8533 6.61228C14.7832 6.54225 14.694 6.49454 14.5968 6.47518C14.4997 6.45581 14.3989 6.46565 14.3074 6.50345C14.2158 6.54126 14.1375 6.60534 14.0823 6.6876C14.0271 6.76986 13.9975 6.86663 13.9973 6.96569V8.99974H11.9967V11.0003H13.9973V13.0376C13.9975 13.1366 14.0271 13.2334 14.0823 13.3157C14.1375 13.3979 14.2158 13.462 14.3074 13.4998C14.3989 13.5376 14.4997 13.5474 14.5968 13.5281C14.694 13.5087 14.7832 13.461 14.8533 13.391L17.8438 10.3756C17.9429 10.2759 17.9986 10.1411 17.9986 10.0005C17.9986 9.85999 17.9429 9.72515 17.8438 9.62551ZM5.99945 10.5009V9.50014C5.99974 9.36751 6.05255 9.2404 6.14634 9.14662C6.24012 9.05283 6.36723 9.00002 6.49986 8.99974H11.9967V5.00082H7.75033C7.55192 4.99913 7.36212 4.91956 7.22183 4.77926C7.08153 4.63896 7.00196 4.44916 7.00026 4.25076V1.91107e-05H0.75007C0.65149 -0.000266217 0.553825 0.0189401 0.462694 0.0565334C0.371563 0.0941267 0.288763 0.149365 0.219056 0.219072C0.149349 0.288779 0.0941107 0.371579 0.0565174 0.46271C0.0189241 0.553841 -0.000282195 0.651505 3.13301e-06 0.750086V15.2499C-0.000282195 15.3485 0.0189241 15.4462 0.0565174 15.5373C0.0941107 15.6284 0.149349 15.7112 0.219056 15.7809C0.288763 15.8507 0.371563 15.9059 0.462694 15.9435C0.553825 15.9811 0.65149 16.0003 0.75007 16H11.2499C11.3485 16.0003 11.4462 15.9811 11.5373 15.9435C11.6284 15.9059 11.7112 15.8507 11.7809 15.7809C11.8506 15.7112 11.9059 15.6284 11.9435 15.5373C11.9811 15.4462 12.0003 15.3485 12 15.2499V11.0003H6.49986C6.36742 10.9997 6.24058 10.9468 6.14703 10.853C6.05348 10.7593 6.00082 10.6323 6.00054 10.4999L5.99945 10.5009Z" fill="white"/>
</svg>
