<svg width="16" height="19" viewBox="0 0 16 19" fill="none" xmlns="http://www.w3.org/2000/svg">
<path opacity="0.3" d="M7.75 0C10.3734 0 12.5 2.12665 12.5 4.75C12.5 7.37335 10.3734 9.5 7.75 9.5C5.12665 9.5 3 7.37335 3 4.75C3 2.12665 5.12665 0 7.75 0Z" fill="#010101"/>
<path d="M0.75 14.6847C0.75 13.8244 1.29085 13.0569 2.10109 12.7675L-nan -nanL2.10109 12.7675C5.75404 11.4629 9.74596 11.4629 13.3989 12.7675L-nan -nanL13.3989 12.7675C14.2091 13.0569 14.75 13.8244 14.75 14.6847V16.0002C14.75 17.1877 13.6983 18.0998 12.5228 17.9319L11.5684 17.7955C9.03565 17.4337 6.46435 17.4337 3.93162 17.7955L2.97721 17.9319C1.8017 18.0998 0.75 17.1877 0.75 16.0002V14.6847Z" fill="#D31145"/>
<path fill-rule="evenodd" clip-rule="evenodd" d="M13.1467 13.4738C9.65683 12.2275 5.84317 12.2275 2.35334 13.4738C1.8416 13.6566 1.5 14.1413 1.5 14.6847V16.0002C1.5 16.7313 2.14746 17.2928 2.87114 17.1894L3.82556 17.0531C6.42864 16.6812 9.07136 16.6812 11.6744 17.0531L12.6289 17.1894C13.3525 17.2928 14 16.7313 14 16.0002V14.6847C14 14.1413 13.6584 13.6566 13.1467 13.4738ZM1.84884 12.0612C5.66491 10.6983 9.83509 10.6983 13.6512 12.0612C14.7599 12.4572 15.5 13.5074 15.5 14.6847V16.0002C15.5 17.6441 14.0441 18.9068 12.4167 18.6744L11.4623 18.538C8.99993 18.1862 6.50006 18.1862 4.03769 18.538L3.08327 18.6744C1.45594 18.9068 0 17.6441 0 16.0002V14.6847C0 13.5074 0.740108 12.4572 1.84884 12.0612Z" fill="#D31145"/>
</svg>
