<svg width="26" height="16" viewBox="0 0 26 16" fill="none" xmlns="http://www.w3.org/2000/svg">
<rect width="25.9574" height="15.1542" rx="2.48934" fill="#1434CB"/>
<g clip-path="url(#clip0_253_12018)">
<path d="M15.3999 4.98657C14.2638 4.98657 13.2486 5.57542 13.2486 6.66335C13.2486 7.911 15.0492 7.99717 15.0492 8.62395C15.0492 8.88787 14.7467 9.12412 14.2302 9.12412C13.4971 9.12412 12.9491 8.79401 12.9491 8.79401L12.7147 9.89186C12.7147 9.89186 13.3459 10.1707 14.1839 10.1707C15.426 10.1707 16.4033 9.55293 16.4033 8.44642C16.4033 7.12804 14.5953 7.04442 14.5953 6.46267C14.5953 6.25591 14.8435 6.02939 15.3586 6.02939C15.9398 6.02939 16.414 6.26947 16.414 6.26947L16.6434 5.20915C16.6434 5.20915 16.1275 4.98657 15.3999 4.98657ZM5.00603 5.0666L4.97852 5.22665C4.97852 5.22665 5.45647 5.31412 5.88693 5.48861C6.44118 5.68868 6.48067 5.80517 6.57402 6.16694L7.59119 10.0882H8.95476L11.0554 5.0666H9.69499L8.34519 8.48079L7.7944 5.58676C7.74389 5.25555 7.48802 5.0666 7.17482 5.0666H5.00603ZM11.6025 5.0666L10.5353 10.0882H11.8325L12.896 5.06659H11.6025V5.0666ZM18.8378 5.0666C18.525 5.0666 18.3593 5.23408 18.2377 5.52674L16.3371 10.0882H17.6975L17.9607 9.32791H19.6181L19.7781 10.0882H20.9785L19.9313 5.0666H18.8378ZM19.0148 6.42327L19.418 8.3076H18.3377L19.0148 6.42327Z" fill="white"/>
</g>
<defs>
<clipPath id="clip0_253_12018">
<rect width="16" height="5.1968" fill="white" transform="translate(4.97852 4.97876)"/>
</clipPath>
</defs>
</svg>
